<svg xmlns="http://www.w3.org/2000/svg" viewBox="0 0 100 100"><linearGradient id="a" gradientUnits="userSpaceOnUse" x1="50.0021" y1=".4179" x2="50.0021" y2="99.5321"><stop offset="0" stop-color="#73c3e9"/><stop offset="1" stop-color="#8b70bd"/></linearGradient><path d="M89.31 9.02L51.15.57c-.73-.21-1.46-.21-2.19 0L10.79 9.02c-2.29.52-4.07 2.61-4.07 5.01V35.2c0 21.06 10.11 41.19 27.11 53.6l13.14 9.7c.94.63 1.98 1.04 3.02 1.04s2.09-.31 3.02-1.04l13.14-9.7c17-12.51 27.11-32.53 27.11-53.6V14.03c.12-2.4-1.65-4.49-3.95-5.01zm-1.98 26.17c0 19.19-9.18 37.43-24.71 48.8L50 93.28 37.38 84C21.95 72.63 12.67 54.39 12.67 35.2V14.76L50 6.52l37.33 8.24v20.43zM42.49 20.18c-3.96-.94-7.82 1.56-8.76 5.42l-1.67 7.2c-6.67 1.25-11.99 3.44-11.99 6.99 0 3.13 3.96 5.11 9.38 6.47L28.3 57.94c-.21 1.25.1 2.5.83 3.44.73 1.04 1.88 1.67 3.13 1.77 3.75.52 9.38.73 11.57.83h.21c1.46 0 2.82-.63 3.86-1.56l1.25-1.25c.52-.63 1.56-.63 2.19 0l1.15 1.25c1.04 1.15 2.5 1.67 4.07 1.56 2.71-.1 7.72-.42 11.16-.83 2.5-.31 4.38-2.71 4.07-5.21l-1.15-11.68c5.42-1.36 9.38-3.34 9.38-6.47 0-3.55-5.32-5.74-11.99-6.99l-1.67-7.2c-.94-3.96-4.8-6.36-8.76-5.42l-4.48 1.04c-1.98.42-4.17.42-6.15 0l-4.48-1.04zm24.72 39.21c-2.4.31-6.36.63-10.84.83-.42 0-.83-.1-1.15-.42l-1.15-1.25c-1.04-1.04-2.4-1.67-3.86-1.67s-2.82.63-3.86 1.56L45.1 59.7c-.31.31-.73.52-1.15.42-4.59-.21-8.65-.52-11.26-.83-.31 0-.52-.21-.63-.31-.1-.1-.21-.31-.21-.63v-.1l1.04-11.26c5.63.94 11.99 1.36 16.89 1.36s11.26-.31 16.89-1.36l1.04 11.26v.1c.33.51.02 1.04-.5 1.04zM53.96 24.97l4.48-1.04c1.88-.42 3.75.73 4.17 2.61l2.71 11.68c.21.83.94 1.46 1.88 1.46h.42c1.04-.21 1.67-1.25 1.46-2.29l-.1-.42c4.28.94 6.78 2.09 7.2 2.92-.94 1.67-10.43 4.69-26.17 4.69s-25.23-3.02-26.17-4.69c.42-.83 2.92-1.98 7.2-2.92l-.1.42c-.21 1.04.42 2.09 1.46 2.29 1.04.21 2.09-.42 2.29-1.46l2.71-11.68c.42-1.88 2.29-3.02 4.17-2.61l4.48 1.04c2.59.63 5.31.63 7.91 0zm.63 28.58c0 1.44 1.82 2.61 4.07 2.61s4.07-1.17 4.07-2.61-1.82-2.61-4.07-2.61-4.07 1.17-4.07 2.61zm-17.31 0c0 1.44 1.82 2.61 4.07 2.61s4.07-1.17 4.07-2.61-1.82-2.61-4.07-2.61-4.07 1.17-4.07 2.61z" fill="url(#a)"/></svg>