<svg xmlns="http://www.w3.org/2000/svg" viewBox="0 0 100 100"><linearGradient id="a" gradientUnits="userSpaceOnUse" x1="49.8806" y1=".398" x2="49.8806" y2="99.8379"><stop offset="0" stop-color="#73c3e9"/><stop offset="1" stop-color="#8b70bd"/></linearGradient><path d="M16.94 99.84c-.75 0-1.5-.28-2.07-.83-1-.95-1.22-2.46-.53-3.66l20.64-36.08L15.5 46.29c-.85-.56-1.35-1.52-1.34-2.53.01-1.02.54-1.96 1.4-2.5L79.64.86c1.19-.75 2.75-.57 3.74.44.99 1.01 1.14 2.57.37 3.75L62.02 38.21l22.4 14.21c.87.55 1.39 1.5 1.39 2.53 0 1.03-.52 1.98-1.39 2.53L18.55 99.37c-.49.31-1.05.47-1.61.47zm5.74-55.98l17.95 11.97c1.31.88 1.72 2.62.94 3.99l-16 27.98 51.65-32.84-20.98-13.32c-.68-.43-1.16-1.11-1.33-1.9-.17-.79-.02-1.61.42-2.28L71.17 13.3 22.68 43.86z" fill="url(#a)"/></svg>