<svg xmlns="http://www.w3.org/2000/svg" viewBox="0 0 100 100"><linearGradient id="a" gradientUnits="userSpaceOnUse" x1="50" y1=".4234" x2="50" y2="99.5766"><stop offset="0" stop-color="#73c3e9"/><stop offset="1" stop-color="#8b70bd"/></linearGradient><path d="M97.54 65.39c-3.26-6.51-9.8-10.56-17.06-10.57h-.01c-4.25 0-8.4 1.44-11.74 4.06L58.7 49.32c2.26-3.2 3.5-7.1 3.5-11.03 0-.39 0-.76-.03-1.17l14.51-3.55c1.42 2.76 3.79 4.84 6.72 5.88 3.05 1.08 6.33.91 9.25-.48 6.03-2.88 8.61-10.15 5.73-16.2-1.39-2.94-3.84-5.15-6.9-6.24-3.05-1.08-6.33-.91-9.25.48-4.21 2.01-6.92 6.33-6.91 11.01l-14.34 3.56c-1.72-4.65-5.11-8.38-9.57-10.55-4.58-2.23-9.75-2.53-14.56-.86-2.39.83-4.55 2.1-6.43 3.78l-6.87-5.76c2.95-5.87.73-13.1-5.07-16.27C15.62.36 12.32 0 9.19.92c-3.14.92-5.72 3.02-7.29 5.9-3.22 5.93-1.03 13.39 4.88 16.62 4.2 2.3 9.31 1.92 13.13-.92l6.87 5.76c-4.07 6.63-3.71 15.11.92 21.37l-7.89 7.52c-2.49-1.81-5.52-2.6-8.59-2.22-3.21.4-6.08 2.03-8.07 4.59-4.1 5.28-3.16 12.93 2.11 17.05 2.55 1.99 5.72 2.87 8.93 2.47 3.21-.4 6.08-2.03 8.07-4.59 2.9-3.74 3.37-8.8 1.23-13l8.15-7.78c6.94 5.23 16.35 5.13 23.17-.24l10.02 9.5c-3.02 4.27-4.16 9.58-3.14 14.71l-10.32 3.66c-1.54-2.69-3.99-4.65-6.96-5.56-3.09-.95-6.37-.64-9.23.88-5.91 3.14-8.17 10.52-5.04 16.45 1.52 2.88 4.06 4.99 7.17 5.94 1.17.36 2.37.54 3.57.54 1.95 0 3.89-.48 5.66-1.42C50.53 96.04 53 91.92 53 87.4v-.64l10.55-3.73c2.33 4.39 6.18 7.66 10.91 9.22 4.85 1.6 10.03 1.22 14.59-1.09 9.42-4.75 13.23-16.31 8.49-25.77zm-84.9 8.19c-1.74 0-3.37-.68-4.6-1.91-1.23-1.23-1.91-2.87-1.91-4.62 0-3.61 2.91-6.54 6.51-6.55h.01c2.8 0 5.29 1.79 6.18 4.46.22.66.33 1.35.33 2.05l.01.13c-.07 3.55-2.96 6.43-6.53 6.44.01 0 0 0 0 0zm.01-54.3h-.03c-1.73 0-3.36-.67-4.59-1.9-1.24-1.23-1.92-2.87-1.93-4.62C6.09 9.14 9 6.2 12.6 6.18h.03c1.73 0 3.36.67 4.59 1.9 1.24 1.23 1.92 2.87 1.93 4.62.01 2.31-1.22 4.48-3.2 5.66-1 .6-2.14.92-3.3.92zm30.4 32.55c-2.79 0-5.46-.85-7.74-2.47-1.24-.88-2.31-1.95-3.19-3.19-3.13-4.33-3.4-10.11-.69-14.72.75-1.31 1.71-2.47 2.84-3.46 2.73-2.35 6.22-3.49 9.8-3.22 3.59.27 6.86 1.93 9.21 4.68 2.01 2.35 3.16 5.34 3.25 8.42v.42c.01 2.72-.79 5.35-2.31 7.6-.85 1.26-1.9 2.35-3.12 3.26-2.3 1.73-5.15 2.68-8.02 2.68h-.03c.01 0 .01 0 0 0zm50.91 22.2c-.01 7.46-6.06 13.53-13.49 13.54-7.44 0-13.49-6.07-13.49-13.54 0-7.47 6.05-13.54 13.49-13.54s13.49 6.07 13.49 13.54zM80.93 28c0-.21.01-.42.03-.63.34-3.35 3.12-5.87 6.47-5.87h.03c3.59.02 6.49 2.96 6.47 6.56-.02 3.59-2.93 6.5-6.5 6.5h-.03c-3.59-.02-6.49-2.96-6.47-6.56zM47.36 88.09c-.33 3.36-3.11 5.89-6.47 5.89h-.03c-1.73 0-3.36-.68-4.59-1.92-1.23-1.23-1.9-2.87-1.9-4.61.01-3.59 2.92-6.51 6.5-6.51h.01c3.57.01 6.48 2.93 6.49 6.51l-.01.64z" fill="url(#a)"/></svg>